<?xml version="1.0" standalone="no"?>
 <!DOCTYPE svg PUBLIC "-//W3C//DTD SVG 1.1//EN" 
 "http://www.w3.org/Graphics/SVG/1.1/DTD/svg11.dtd"> 
<svg
  xmlns:svg="http://www.w3.org/2000/svg"
  xmlns="http://www.w3.org/2000/svg"
  xmlns:xlink="http://www.w3.org/1999/xlink"
  version="1.1"
  width="25.9842mm" height="55.9816mm" viewBox="0.0000 0.0000 25.9842 55.9816">
<title>SVG Image created as sdram-B_Paste.svg date 2024/12/14 11:55:57 </title>
  <desc>Image generated by PCBNEW </desc>
<g style="fill:#000000; fill-opacity:1.0000;stroke:#000000; stroke-opacity:1.0000;
stroke-linecap:round; stroke-linejoin:round;"
 transform="translate(0 0) scale(1 1)">
<path style="fill:#00C2C2; fill-opacity:0.9000; stroke:none;fill-rule:evenodd;"
d="M 16.7467,48.4250
16.7277,48.3293
16.6735,48.2482
16.5924,48.1940
16.4967,48.1750
15.8217,48.1750
15.7260,48.1940
15.6449,48.2482
15.5907,48.3293
15.5717,48.4250
15.5717,49.3750
15.5907,49.4707
15.6449,49.5518
15.7260,49.6060
15.8217,49.6250
16.4967,49.6250
16.5924,49.6060
16.6735,49.5518
16.7277,49.4707
16.7467,49.3750
Z" /> 
<path style="fill:#00C2C2; fill-opacity:0.9000; stroke:none;fill-rule:evenodd;"
d="M 14.6717,48.4250
14.6527,48.3293
14.5985,48.2482
14.5174,48.1940
14.4217,48.1750
13.7467,48.1750
13.6510,48.1940
13.5699,48.2482
13.5157,48.3293
13.4967,48.4250
13.4967,49.3750
13.5157,49.4707
13.5699,49.5518
13.6510,49.6060
13.7467,49.6250
14.4217,49.6250
14.5174,49.6060
14.5985,49.5518
14.6527,49.4707
14.6717,49.3750
Z" /> 
<path style="fill:#00C2C2; fill-opacity:0.9000; stroke:none;fill-rule:evenodd;"
d="M 5.3842,42.8250
5.3918,42.8633
5.4135,42.8957
5.4459,42.9174
5.4842,42.9250
6.7592,42.9250
6.7975,42.9174
6.8299,42.8957
6.8516,42.8633
6.8592,42.8250
6.8592,42.6250
6.8516,42.5867
6.8299,42.5543
6.7975,42.5326
6.7592,42.5250
5.4842,42.5250
5.4459,42.5326
5.4135,42.5543
5.3918,42.5867
5.3842,42.6250
Z" /> 
<path style="fill:#00C2C2; fill-opacity:0.9000; stroke:none;fill-rule:evenodd;"
d="M 5.3842,43.4750
5.3918,43.5133
5.4135,43.5457
5.4459,43.5674
5.4842,43.5750
6.7592,43.5750
6.7975,43.5674
6.8299,43.5457
6.8516,43.5133
6.8592,43.4750
6.8592,43.2750
6.8516,43.2367
6.8299,43.2043
6.7975,43.1826
6.7592,43.1750
5.4842,43.1750
5.4459,43.1826
5.4135,43.2043
5.3918,43.2367
5.3842,43.2750
Z" /> 
<path style="fill:#00C2C2; fill-opacity:0.9000; stroke:none;fill-rule:evenodd;"
d="M 5.3842,44.1250
5.3918,44.1633
5.4135,44.1957
5.4459,44.2174
5.4842,44.2250
6.7592,44.2250
6.7975,44.2174
6.8299,44.1957
6.8516,44.1633
6.8592,44.1250
6.8592,43.9250
6.8516,43.8867
6.8299,43.8543
6.7975,43.8326
6.7592,43.8250
5.4842,43.8250
5.4459,43.8326
5.4135,43.8543
5.3918,43.8867
5.3842,43.9250
Z" /> 
<path style="fill:#00C2C2; fill-opacity:0.9000; stroke:none;fill-rule:evenodd;"
d="M 5.3842,44.7750
5.3918,44.8133
5.4135,44.8457
5.4459,44.8674
5.4842,44.8750
6.7592,44.8750
6.7975,44.8674
6.8299,44.8457
6.8516,44.8133
6.8592,44.7750
6.8592,44.5750
6.8516,44.5367
6.8299,44.5043
6.7975,44.4826
6.7592,44.4750
5.4842,44.4750
5.4459,44.4826
5.4135,44.5043
5.3918,44.5367
5.3842,44.5750
Z" /> 
<path style="fill:#00C2C2; fill-opacity:0.9000; stroke:none;fill-rule:evenodd;"
d="M 5.3842,45.4250
5.3918,45.4633
5.4135,45.4957
5.4459,45.5174
5.4842,45.5250
6.7592,45.5250
6.7975,45.5174
6.8299,45.4957
6.8516,45.4633
6.8592,45.4250
6.8592,45.2250
6.8516,45.1867
6.8299,45.1543
6.7975,45.1326
6.7592,45.1250
5.4842,45.1250
5.4459,45.1326
5.4135,45.1543
5.3918,45.1867
5.3842,45.2250
Z" /> 
<path style="fill:#00C2C2; fill-opacity:0.9000; stroke:none;fill-rule:evenodd;"
d="M 5.3842,46.0750
5.3918,46.1133
5.4135,46.1457
5.4459,46.1674
5.4842,46.1750
6.7592,46.1750
6.7975,46.1674
6.8299,46.1457
6.8516,46.1133
6.8592,46.0750
6.8592,45.8750
6.8516,45.8367
6.8299,45.8043
6.7975,45.7826
6.7592,45.7750
5.4842,45.7750
5.4459,45.7826
5.4135,45.8043
5.3918,45.8367
5.3842,45.8750
Z" /> 
<path style="fill:#00C2C2; fill-opacity:0.9000; stroke:none;fill-rule:evenodd;"
d="M 5.3842,46.7250
5.3918,46.7633
5.4135,46.7957
5.4459,46.8174
5.4842,46.8250
6.7592,46.8250
6.7975,46.8174
6.8299,46.7957
6.8516,46.7633
6.8592,46.7250
6.8592,46.5250
6.8516,46.4867
6.8299,46.4543
6.7975,46.4326
6.7592,46.4250
5.4842,46.4250
5.4459,46.4326
5.4135,46.4543
5.3918,46.4867
5.3842,46.5250
Z" /> 
<path style="fill:#00C2C2; fill-opacity:0.9000; stroke:none;fill-rule:evenodd;"
d="M 5.3842,47.3750
5.3918,47.4133
5.4135,47.4457
5.4459,47.4674
5.4842,47.4750
6.7592,47.4750
6.7975,47.4674
6.8299,47.4457
6.8516,47.4133
6.8592,47.3750
6.8592,47.1750
6.8516,47.1367
6.8299,47.1043
6.7975,47.0826
6.7592,47.0750
5.4842,47.0750
5.4459,47.0826
5.4135,47.1043
5.3918,47.1367
5.3842,47.1750
Z" /> 
<path style="fill:#00C2C2; fill-opacity:0.9000; stroke:none;fill-rule:evenodd;"
d="M 11.1092,47.3750
11.1168,47.4133
11.1385,47.4457
11.1709,47.4674
11.2092,47.4750
12.4842,47.4750
12.5225,47.4674
12.5549,47.4457
12.5766,47.4133
12.5842,47.3750
12.5842,47.1750
12.5766,47.1367
12.5549,47.1043
12.5225,47.0826
12.4842,47.0750
11.2092,47.0750
11.1709,47.0826
11.1385,47.1043
11.1168,47.1367
11.1092,47.1750
Z" /> 
<path style="fill:#00C2C2; fill-opacity:0.9000; stroke:none;fill-rule:evenodd;"
d="M 11.1092,46.7250
11.1168,46.7633
11.1385,46.7957
11.1709,46.8174
11.2092,46.8250
12.4842,46.8250
12.5225,46.8174
12.5549,46.7957
12.5766,46.7633
12.5842,46.7250
12.5842,46.5250
12.5766,46.4867
12.5549,46.4543
12.5225,46.4326
12.4842,46.4250
11.2092,46.4250
11.1709,46.4326
11.1385,46.4543
11.1168,46.4867
11.1092,46.5250
Z" /> 
<path style="fill:#00C2C2; fill-opacity:0.9000; stroke:none;fill-rule:evenodd;"
d="M 11.1092,46.0750
11.1168,46.1133
11.1385,46.1457
11.1709,46.1674
11.2092,46.1750
12.4842,46.1750
12.5225,46.1674
12.5549,46.1457
12.5766,46.1133
12.5842,46.0750
12.5842,45.8750
12.5766,45.8367
12.5549,45.8043
12.5225,45.7826
12.4842,45.7750
11.2092,45.7750
11.1709,45.7826
11.1385,45.8043
11.1168,45.8367
11.1092,45.8750
Z" /> 
<path style="fill:#00C2C2; fill-opacity:0.9000; stroke:none;fill-rule:evenodd;"
d="M 11.1092,45.4250
11.1168,45.4633
11.1385,45.4957
11.1709,45.5174
11.2092,45.5250
12.4842,45.5250
12.5225,45.5174
12.5549,45.4957
12.5766,45.4633
12.5842,45.4250
12.5842,45.2250
12.5766,45.1867
12.5549,45.1543
12.5225,45.1326
12.4842,45.1250
11.2092,45.1250
11.1709,45.1326
11.1385,45.1543
11.1168,45.1867
11.1092,45.2250
Z" /> 
<path style="fill:#00C2C2; fill-opacity:0.9000; stroke:none;fill-rule:evenodd;"
d="M 11.1092,44.7750
11.1168,44.8133
11.1385,44.8457
11.1709,44.8674
11.2092,44.8750
12.4842,44.8750
12.5225,44.8674
12.5549,44.8457
12.5766,44.8133
12.5842,44.7750
12.5842,44.5750
12.5766,44.5367
12.5549,44.5043
12.5225,44.4826
12.4842,44.4750
11.2092,44.4750
11.1709,44.4826
11.1385,44.5043
11.1168,44.5367
11.1092,44.5750
Z" /> 
<path style="fill:#00C2C2; fill-opacity:0.9000; stroke:none;fill-rule:evenodd;"
d="M 11.1092,44.1250
11.1168,44.1633
11.1385,44.1957
11.1709,44.2174
11.2092,44.2250
12.4842,44.2250
12.5225,44.2174
12.5549,44.1957
12.5766,44.1633
12.5842,44.1250
12.5842,43.9250
12.5766,43.8867
12.5549,43.8543
12.5225,43.8326
12.4842,43.8250
11.2092,43.8250
11.1709,43.8326
11.1385,43.8543
11.1168,43.8867
11.1092,43.9250
Z" /> 
<path style="fill:#00C2C2; fill-opacity:0.9000; stroke:none;fill-rule:evenodd;"
d="M 11.1092,43.4750
11.1168,43.5133
11.1385,43.5457
11.1709,43.5674
11.2092,43.5750
12.4842,43.5750
12.5225,43.5674
12.5549,43.5457
12.5766,43.5133
12.5842,43.4750
12.5842,43.2750
12.5766,43.2367
12.5549,43.2043
12.5225,43.1826
12.4842,43.1750
11.2092,43.1750
11.1709,43.1826
11.1385,43.2043
11.1168,43.2367
11.1092,43.2750
Z" /> 
<path style="fill:#00C2C2; fill-opacity:0.9000; stroke:none;fill-rule:evenodd;"
d="M 11.1092,42.8250
11.1168,42.8633
11.1385,42.8957
11.1709,42.9174
11.2092,42.9250
12.4842,42.9250
12.5225,42.9174
12.5549,42.8957
12.5766,42.8633
12.5842,42.8250
12.5842,42.6250
12.5766,42.5867
12.5549,42.5543
12.5225,42.5326
12.4842,42.5250
11.2092,42.5250
11.1709,42.5326
11.1385,42.5543
11.1168,42.5867
11.1092,42.6250
Z" /> 
<path style="fill:#00C2C2; fill-opacity:0.9000; stroke:none;fill-rule:evenodd;"
d="M 6.5292,18.3710
6.5292,18.8290
8.0392,18.8290
8.0392,18.3710
Z" /> 
<path style="fill:#00C2C2; fill-opacity:0.9000; stroke:none;fill-rule:evenodd;"
d="M 6.5292,19.1710
6.5292,19.6290
8.0392,19.6290
8.0392,19.1710
Z" /> 
<path style="fill:#00C2C2; fill-opacity:0.9000; stroke:none;fill-rule:evenodd;"
d="M 6.5292,19.9710
6.5292,20.4290
8.0392,20.4290
8.0392,19.9710
Z" /> 
<path style="fill:#00C2C2; fill-opacity:0.9000; stroke:none;fill-rule:evenodd;"
d="M 6.5292,20.7710
6.5292,21.2290
8.0392,21.2290
8.0392,20.7710
Z" /> 
<path style="fill:#00C2C2; fill-opacity:0.9000; stroke:none;fill-rule:evenodd;"
d="M 6.5292,21.5710
6.5292,22.0290
8.0392,22.0290
8.0392,21.5710
Z" /> 
<path style="fill:#00C2C2; fill-opacity:0.9000; stroke:none;fill-rule:evenodd;"
d="M 6.5292,22.3710
6.5292,22.8290
8.0392,22.8290
8.0392,22.3710
Z" /> 
<path style="fill:#00C2C2; fill-opacity:0.9000; stroke:none;fill-rule:evenodd;"
d="M 6.5292,23.1710
6.5292,23.6290
8.0392,23.6290
8.0392,23.1710
Z" /> 
<path style="fill:#00C2C2; fill-opacity:0.9000; stroke:none;fill-rule:evenodd;"
d="M 6.5292,23.9710
6.5292,24.4290
8.0392,24.4290
8.0392,23.9710
Z" /> 
<path style="fill:#00C2C2; fill-opacity:0.9000; stroke:none;fill-rule:evenodd;"
d="M 6.5292,24.7710
6.5292,25.2290
8.0392,25.2290
8.0392,24.7710
Z" /> 
<path style="fill:#00C2C2; fill-opacity:0.9000; stroke:none;fill-rule:evenodd;"
d="M 6.5292,25.5710
6.5292,26.0290
8.0392,26.0290
8.0392,25.5710
Z" /> 
<path style="fill:#00C2C2; fill-opacity:0.9000; stroke:none;fill-rule:evenodd;"
d="M 6.5292,26.3710
6.5292,26.8290
8.0392,26.8290
8.0392,26.3710
Z" /> 
<path style="fill:#00C2C2; fill-opacity:0.9000; stroke:none;fill-rule:evenodd;"
d="M 6.5292,27.1710
6.5292,27.6290
8.0392,27.6290
8.0392,27.1710
Z" /> 
<path style="fill:#00C2C2; fill-opacity:0.9000; stroke:none;fill-rule:evenodd;"
d="M 6.5292,27.9710
6.5292,28.4290
8.0392,28.4290
8.0392,27.9710
Z" /> 
<path style="fill:#00C2C2; fill-opacity:0.9000; stroke:none;fill-rule:evenodd;"
d="M 6.5292,28.7710
6.5292,29.2290
8.0392,29.2290
8.0392,28.7710
Z" /> 
<path style="fill:#00C2C2; fill-opacity:0.9000; stroke:none;fill-rule:evenodd;"
d="M 6.5292,29.5710
6.5292,30.0290
8.0392,30.0290
8.0392,29.5710
Z" /> 
<path style="fill:#00C2C2; fill-opacity:0.9000; stroke:none;fill-rule:evenodd;"
d="M 6.5292,30.3710
6.5292,30.8290
8.0392,30.8290
8.0392,30.3710
Z" /> 
<path style="fill:#00C2C2; fill-opacity:0.9000; stroke:none;fill-rule:evenodd;"
d="M 6.5292,31.1710
6.5292,31.6290
8.0392,31.6290
8.0392,31.1710
Z" /> 
<path style="fill:#00C2C2; fill-opacity:0.9000; stroke:none;fill-rule:evenodd;"
d="M 6.5292,31.9710
6.5292,32.4290
8.0392,32.4290
8.0392,31.9710
Z" /> 
<path style="fill:#00C2C2; fill-opacity:0.9000; stroke:none;fill-rule:evenodd;"
d="M 6.5292,32.7710
6.5292,33.2290
8.0392,33.2290
8.0392,32.7710
Z" /> 
<path style="fill:#00C2C2; fill-opacity:0.9000; stroke:none;fill-rule:evenodd;"
d="M 6.5292,33.5710
6.5292,34.0290
8.0392,34.0290
8.0392,33.5710
Z" /> 
<path style="fill:#00C2C2; fill-opacity:0.9000; stroke:none;fill-rule:evenodd;"
d="M 6.5292,34.3710
6.5292,34.8290
8.0392,34.8290
8.0392,34.3710
Z" /> 
<path style="fill:#00C2C2; fill-opacity:0.9000; stroke:none;fill-rule:evenodd;"
d="M 6.5292,35.1710
6.5292,35.6290
8.0392,35.6290
8.0392,35.1710
Z" /> 
<path style="fill:#00C2C2; fill-opacity:0.9000; stroke:none;fill-rule:evenodd;"
d="M 6.5292,35.9710
6.5292,36.4290
8.0392,36.4290
8.0392,35.9710
Z" /> 
<path style="fill:#00C2C2; fill-opacity:0.9000; stroke:none;fill-rule:evenodd;"
d="M 6.5292,36.7710
6.5292,37.2290
8.0392,37.2290
8.0392,36.7710
Z" /> 
<path style="fill:#00C2C2; fill-opacity:0.9000; stroke:none;fill-rule:evenodd;"
d="M 6.5292,37.5710
6.5292,38.0290
8.0392,38.0290
8.0392,37.5710
Z" /> 
<path style="fill:#00C2C2; fill-opacity:0.9000; stroke:none;fill-rule:evenodd;"
d="M 6.5292,38.3710
6.5292,38.8290
8.0392,38.8290
8.0392,38.3710
Z" /> 
<path style="fill:#00C2C2; fill-opacity:0.9000; stroke:none;fill-rule:evenodd;"
d="M 6.5292,39.1710
6.5292,39.6290
8.0392,39.6290
8.0392,39.1710
Z" /> 
<path style="fill:#00C2C2; fill-opacity:0.9000; stroke:none;fill-rule:evenodd;"
d="M 18.0292,39.1710
18.0292,39.6290
19.5392,39.6290
19.5392,39.1710
Z" /> 
<path style="fill:#00C2C2; fill-opacity:0.9000; stroke:none;fill-rule:evenodd;"
d="M 18.0292,38.3710
18.0292,38.8290
19.5392,38.8290
19.5392,38.3710
Z" /> 
<path style="fill:#00C2C2; fill-opacity:0.9000; stroke:none;fill-rule:evenodd;"
d="M 18.0292,37.5710
18.0292,38.0290
19.5392,38.0290
19.5392,37.5710
Z" /> 
<path style="fill:#00C2C2; fill-opacity:0.9000; stroke:none;fill-rule:evenodd;"
d="M 18.0292,36.7710
18.0292,37.2290
19.5392,37.2290
19.5392,36.7710
Z" /> 
<path style="fill:#00C2C2; fill-opacity:0.9000; stroke:none;fill-rule:evenodd;"
d="M 18.0292,35.9710
18.0292,36.4290
19.5392,36.4290
19.5392,35.9710
Z" /> 
<path style="fill:#00C2C2; fill-opacity:0.9000; stroke:none;fill-rule:evenodd;"
d="M 18.0292,35.1710
18.0292,35.6290
19.5392,35.6290
19.5392,35.1710
Z" /> 
<path style="fill:#00C2C2; fill-opacity:0.9000; stroke:none;fill-rule:evenodd;"
d="M 18.0292,34.3710
18.0292,34.8290
19.5392,34.8290
19.5392,34.3710
Z" /> 
<path style="fill:#00C2C2; fill-opacity:0.9000; stroke:none;fill-rule:evenodd;"
d="M 18.0292,33.5710
18.0292,34.0290
19.5392,34.0290
19.5392,33.5710
Z" /> 
<path style="fill:#00C2C2; fill-opacity:0.9000; stroke:none;fill-rule:evenodd;"
d="M 18.0292,32.7710
18.0292,33.2290
19.5392,33.2290
19.5392,32.7710
Z" /> 
<path style="fill:#00C2C2; fill-opacity:0.9000; stroke:none;fill-rule:evenodd;"
d="M 18.0292,31.9710
18.0292,32.4290
19.5392,32.4290
19.5392,31.9710
Z" /> 
<path style="fill:#00C2C2; fill-opacity:0.9000; stroke:none;fill-rule:evenodd;"
d="M 18.0292,31.1710
18.0292,31.6290
19.5392,31.6290
19.5392,31.1710
Z" /> 
<path style="fill:#00C2C2; fill-opacity:0.9000; stroke:none;fill-rule:evenodd;"
d="M 18.0292,30.3710
18.0292,30.8290
19.5392,30.8290
19.5392,30.3710
Z" /> 
<path style="fill:#00C2C2; fill-opacity:0.9000; stroke:none;fill-rule:evenodd;"
d="M 18.0292,29.5710
18.0292,30.0290
19.5392,30.0290
19.5392,29.5710
Z" /> 
<path style="fill:#00C2C2; fill-opacity:0.9000; stroke:none;fill-rule:evenodd;"
d="M 18.0292,28.7710
18.0292,29.2290
19.5392,29.2290
19.5392,28.7710
Z" /> 
<path style="fill:#00C2C2; fill-opacity:0.9000; stroke:none;fill-rule:evenodd;"
d="M 18.0292,27.9710
18.0292,28.4290
19.5392,28.4290
19.5392,27.9710
Z" /> 
<path style="fill:#00C2C2; fill-opacity:0.9000; stroke:none;fill-rule:evenodd;"
d="M 18.0292,27.1710
18.0292,27.6290
19.5392,27.6290
19.5392,27.1710
Z" /> 
<path style="fill:#00C2C2; fill-opacity:0.9000; stroke:none;fill-rule:evenodd;"
d="M 18.0292,26.3710
18.0292,26.8290
19.5392,26.8290
19.5392,26.3710
Z" /> 
<path style="fill:#00C2C2; fill-opacity:0.9000; stroke:none;fill-rule:evenodd;"
d="M 18.0292,25.5710
18.0292,26.0290
19.5392,26.0290
19.5392,25.5710
Z" /> 
<path style="fill:#00C2C2; fill-opacity:0.9000; stroke:none;fill-rule:evenodd;"
d="M 18.0292,24.7710
18.0292,25.2290
19.5392,25.2290
19.5392,24.7710
Z" /> 
<path style="fill:#00C2C2; fill-opacity:0.9000; stroke:none;fill-rule:evenodd;"
d="M 18.0292,23.9710
18.0292,24.4290
19.5392,24.4290
19.5392,23.9710
Z" /> 
<path style="fill:#00C2C2; fill-opacity:0.9000; stroke:none;fill-rule:evenodd;"
d="M 18.0292,23.1710
18.0292,23.6290
19.5392,23.6290
19.5392,23.1710
Z" /> 
<path style="fill:#00C2C2; fill-opacity:0.9000; stroke:none;fill-rule:evenodd;"
d="M 18.0292,22.3710
18.0292,22.8290
19.5392,22.8290
19.5392,22.3710
Z" /> 
<path style="fill:#00C2C2; fill-opacity:0.9000; stroke:none;fill-rule:evenodd;"
d="M 18.0292,21.5710
18.0292,22.0290
19.5392,22.0290
19.5392,21.5710
Z" /> 
<path style="fill:#00C2C2; fill-opacity:0.9000; stroke:none;fill-rule:evenodd;"
d="M 18.0292,20.7710
18.0292,21.2290
19.5392,21.2290
19.5392,20.7710
Z" /> 
<path style="fill:#00C2C2; fill-opacity:0.9000; stroke:none;fill-rule:evenodd;"
d="M 18.0292,19.9710
18.0292,20.4290
19.5392,20.4290
19.5392,19.9710
Z" /> 
<path style="fill:#00C2C2; fill-opacity:0.9000; stroke:none;fill-rule:evenodd;"
d="M 18.0292,19.1710
18.0292,19.6290
19.5392,19.6290
19.5392,19.1710
Z" /> 
<path style="fill:#00C2C2; fill-opacity:0.9000; stroke:none;fill-rule:evenodd;"
d="M 18.0292,18.3710
18.0292,18.8290
19.5392,18.8290
19.5392,18.3710
Z" /> 
<path style="fill:#00C2C2; fill-opacity:0.9000; stroke:none;fill-rule:evenodd;"
d="M 5.5217,12.8750
5.5407,12.9707
5.5949,13.0518
5.6760,13.1060
5.7717,13.1250
6.4467,13.1250
6.5424,13.1060
6.6235,13.0518
6.6777,12.9707
6.6967,12.8750
6.6967,11.9250
6.6777,11.8293
6.6235,11.7482
6.5424,11.6940
6.4467,11.6750
5.7717,11.6750
5.6760,11.6940
5.5949,11.7482
5.5407,11.8293
5.5217,11.9250
Z" /> 
<path style="fill:#00C2C2; fill-opacity:0.9000; stroke:none;fill-rule:evenodd;"
d="M 7.5967,12.8750
7.6157,12.9707
7.6699,13.0518
7.7510,13.1060
7.8467,13.1250
8.5217,13.1250
8.6174,13.1060
8.6985,13.0518
8.7527,12.9707
8.7717,12.8750
8.7717,11.9250
8.7527,11.8293
8.6985,11.7482
8.6174,11.6940
8.5217,11.6750
7.8467,11.6750
7.7510,11.6940
7.6699,11.7482
7.6157,11.8293
7.5967,11.9250
Z" /> 
<path style="fill:#00C2C2; fill-opacity:0.9000; stroke:none;fill-rule:evenodd;"
d="M 17.1217,8.8750
17.1407,8.9707
17.1949,9.0518
17.2760,9.1060
17.3717,9.1250
18.0467,9.1250
18.1424,9.1060
18.2235,9.0518
18.2777,8.9707
18.2967,8.8750
18.2967,7.9250
18.2777,7.8293
18.2235,7.7482
18.1424,7.6940
18.0467,7.6750
17.3717,7.6750
17.2760,7.6940
17.1949,7.7482
17.1407,7.8293
17.1217,7.9250
Z" /> 
<path style="fill:#00C2C2; fill-opacity:0.9000; stroke:none;fill-rule:evenodd;"
d="M 19.1967,8.8750
19.2157,8.9707
19.2699,9.0518
19.3510,9.1060
19.4467,9.1250
20.1217,9.1250
20.2174,9.1060
20.2985,9.0518
20.3527,8.9707
20.3717,8.8750
20.3717,7.9250
20.3527,7.8293
20.2985,7.7482
20.2174,7.6940
20.1217,7.6750
19.4467,7.6750
19.3510,7.6940
19.2699,7.7482
19.2157,7.8293
19.1967,7.9250
Z" /> 
<path style="fill:#00C2C2; fill-opacity:0.9000; stroke:none;fill-rule:evenodd;"
d="M 5.5217,10.8750
5.5407,10.9707
5.5949,11.0518
5.6760,11.1060
5.7717,11.1250
6.4467,11.1250
6.5424,11.1060
6.6235,11.0518
6.6777,10.9707
6.6967,10.8750
6.6967,9.9250
6.6777,9.8293
6.6235,9.7482
6.5424,9.6940
6.4467,9.6750
5.7717,9.6750
5.6760,9.6940
5.5949,9.7482
5.5407,9.8293
5.5217,9.9250
Z" /> 
<path style="fill:#00C2C2; fill-opacity:0.9000; stroke:none;fill-rule:evenodd;"
d="M 7.5967,10.8750
7.6157,10.9707
7.6699,11.0518
7.7510,11.1060
7.8467,11.1250
8.5217,11.1250
8.6174,11.1060
8.6985,11.0518
8.7527,10.9707
8.7717,10.8750
8.7717,9.9250
8.7527,9.8293
8.6985,9.7482
8.6174,9.6940
8.5217,9.6750
7.8467,9.6750
7.7510,9.6940
7.6699,9.7482
7.6157,9.8293
7.5967,9.9250
Z" /> 
<path style="fill:#00C2C2; fill-opacity:0.9000; stroke:none;fill-rule:evenodd;"
d="M 5.5217,14.8750
5.5407,14.9707
5.5949,15.0518
5.6760,15.1060
5.7717,15.1250
6.4467,15.1250
6.5424,15.1060
6.6235,15.0518
6.6777,14.9707
6.6967,14.8750
6.6967,13.9250
6.6777,13.8293
6.6235,13.7482
6.5424,13.6940
6.4467,13.6750
5.7717,13.6750
5.6760,13.6940
5.5949,13.7482
5.5407,13.8293
5.5217,13.9250
Z" /> 
<path style="fill:#00C2C2; fill-opacity:0.9000; stroke:none;fill-rule:evenodd;"
d="M 7.5967,14.8750
7.6157,14.9707
7.6699,15.0518
7.7510,15.1060
7.8467,15.1250
8.5217,15.1250
8.6174,15.1060
8.6985,15.0518
8.7527,14.9707
8.7717,14.8750
8.7717,13.9250
8.7527,13.8293
8.6985,13.7482
8.6174,13.6940
8.5217,13.6750
7.8467,13.6750
7.7510,13.6940
7.6699,13.7482
7.6157,13.8293
7.5967,13.9250
Z" /> 
<path style="fill:#00C2C2; fill-opacity:0.9000; stroke:none;fill-rule:evenodd;"
d="M 17.2592,49.3750
17.2782,49.4707
17.3324,49.5518
17.4135,49.6060
17.5092,49.6250
18.1842,49.6250
18.2799,49.6060
18.3610,49.5518
18.4152,49.4707
18.4342,49.3750
18.4342,48.4250
18.4152,48.3293
18.3610,48.2482
18.2799,48.1940
18.1842,48.1750
17.5092,48.1750
17.4135,48.1940
17.3324,48.2482
17.2782,48.3293
17.2592,48.4250
Z" /> 
<path style="fill:#00C2C2; fill-opacity:0.9000; stroke:none;fill-rule:evenodd;"
d="M 19.3342,49.3750
19.3532,49.4707
19.4074,49.5518
19.4885,49.6060
19.5842,49.6250
20.2592,49.6250
20.3549,49.6060
20.4360,49.5518
20.4902,49.4707
20.5092,49.3750
20.5092,48.4250
20.4902,48.3293
20.4360,48.2482
20.3549,48.1940
20.2592,48.1750
19.5842,48.1750
19.4885,48.1940
19.4074,48.2482
19.3532,48.3293
19.3342,48.4250
Z" /> 
<path style="fill:#00C2C2; fill-opacity:0.9000; stroke:none;fill-rule:evenodd;"
d="M 9.2592,49.3750
9.2782,49.4707
9.3324,49.5518
9.4135,49.6060
9.5092,49.6250
10.1842,49.6250
10.2799,49.6060
10.3610,49.5518
10.4152,49.4707
10.4342,49.3750
10.4342,48.4250
10.4152,48.3293
10.3610,48.2482
10.2799,48.1940
10.1842,48.1750
9.5092,48.1750
9.4135,48.1940
9.3324,48.2482
9.2782,48.3293
9.2592,48.4250
Z" /> 
<path style="fill:#00C2C2; fill-opacity:0.9000; stroke:none;fill-rule:evenodd;"
d="M 11.3342,49.3750
11.3532,49.4707
11.4074,49.5518
11.4885,49.6060
11.5842,49.6250
12.2592,49.6250
12.3549,49.6060
12.4360,49.5518
12.4902,49.4707
12.5092,49.3750
12.5092,48.4250
12.4902,48.3293
12.4360,48.2482
12.3549,48.1940
12.2592,48.1750
11.5842,48.1750
11.4885,48.1940
11.4074,48.2482
11.3532,48.3293
11.3342,48.4250
Z" /> 
<path style="fill:#00C2C2; fill-opacity:0.9000; stroke:none;fill-rule:evenodd;"
d="M 17.1217,16.9050
17.1407,17.0007
17.1949,17.0818
17.2760,17.1360
17.3717,17.1550
18.0467,17.1550
18.1424,17.1360
18.2235,17.0818
18.2777,17.0007
18.2967,16.9050
18.2967,15.9550
18.2777,15.8593
18.2235,15.7782
18.1424,15.7240
18.0467,15.7050
17.3717,15.7050
17.2760,15.7240
17.1949,15.7782
17.1407,15.8593
17.1217,15.9550
Z" /> 
<path style="fill:#00C2C2; fill-opacity:0.9000; stroke:none;fill-rule:evenodd;"
d="M 19.1967,16.9050
19.2157,17.0007
19.2699,17.0818
19.3510,17.1360
19.4467,17.1550
20.1217,17.1550
20.2174,17.1360
20.2985,17.0818
20.3527,17.0007
20.3717,16.9050
20.3717,15.9550
20.3527,15.8593
20.2985,15.7782
20.2174,15.7240
20.1217,15.7050
19.4467,15.7050
19.3510,15.7240
19.2699,15.7782
19.2157,15.8593
19.1967,15.9550
Z" /> 
<path style="fill:#00C2C2; fill-opacity:0.9000; stroke:none;fill-rule:evenodd;"
d="M 13.3842,42.8250
13.3918,42.8633
13.4135,42.8957
13.4459,42.9174
13.4842,42.9250
14.7592,42.9250
14.7975,42.9174
14.8299,42.8957
14.8516,42.8633
14.8592,42.8250
14.8592,42.6250
14.8516,42.5867
14.8299,42.5543
14.7975,42.5326
14.7592,42.5250
13.4842,42.5250
13.4459,42.5326
13.4135,42.5543
13.3918,42.5867
13.3842,42.6250
Z" /> 
<path style="fill:#00C2C2; fill-opacity:0.9000; stroke:none;fill-rule:evenodd;"
d="M 13.3842,43.4750
13.3918,43.5133
13.4135,43.5457
13.4459,43.5674
13.4842,43.5750
14.7592,43.5750
14.7975,43.5674
14.8299,43.5457
14.8516,43.5133
14.8592,43.4750
14.8592,43.2750
14.8516,43.2367
14.8299,43.2043
14.7975,43.1826
14.7592,43.1750
13.4842,43.1750
13.4459,43.1826
13.4135,43.2043
13.3918,43.2367
13.3842,43.2750
Z" /> 
<path style="fill:#00C2C2; fill-opacity:0.9000; stroke:none;fill-rule:evenodd;"
d="M 13.3842,44.1250
13.3918,44.1633
13.4135,44.1957
13.4459,44.2174
13.4842,44.2250
14.7592,44.2250
14.7975,44.2174
14.8299,44.1957
14.8516,44.1633
14.8592,44.1250
14.8592,43.9250
14.8516,43.8867
14.8299,43.8543
14.7975,43.8326
14.7592,43.8250
13.4842,43.8250
13.4459,43.8326
13.4135,43.8543
13.3918,43.8867
13.3842,43.9250
Z" /> 
<path style="fill:#00C2C2; fill-opacity:0.9000; stroke:none;fill-rule:evenodd;"
d="M 13.3842,44.7750
13.3918,44.8133
13.4135,44.8457
13.4459,44.8674
13.4842,44.8750
14.7592,44.8750
14.7975,44.8674
14.8299,44.8457
14.8516,44.8133
14.8592,44.7750
14.8592,44.5750
14.8516,44.5367
14.8299,44.5043
14.7975,44.4826
14.7592,44.4750
13.4842,44.4750
13.4459,44.4826
13.4135,44.5043
13.3918,44.5367
13.3842,44.5750
Z" /> 
<path style="fill:#00C2C2; fill-opacity:0.9000; stroke:none;fill-rule:evenodd;"
d="M 13.3842,45.4250
13.3918,45.4633
13.4135,45.4957
13.4459,45.5174
13.4842,45.5250
14.7592,45.5250
14.7975,45.5174
14.8299,45.4957
14.8516,45.4633
14.8592,45.4250
14.8592,45.2250
14.8516,45.1867
14.8299,45.1543
14.7975,45.1326
14.7592,45.1250
13.4842,45.1250
13.4459,45.1326
13.4135,45.1543
13.3918,45.1867
13.3842,45.2250
Z" /> 
<path style="fill:#00C2C2; fill-opacity:0.9000; stroke:none;fill-rule:evenodd;"
d="M 13.3842,46.0750
13.3918,46.1133
13.4135,46.1457
13.4459,46.1674
13.4842,46.1750
14.7592,46.1750
14.7975,46.1674
14.8299,46.1457
14.8516,46.1133
14.8592,46.0750
14.8592,45.8750
14.8516,45.8367
14.8299,45.8043
14.7975,45.7826
14.7592,45.7750
13.4842,45.7750
13.4459,45.7826
13.4135,45.8043
13.3918,45.8367
13.3842,45.8750
Z" /> 
<path style="fill:#00C2C2; fill-opacity:0.9000; stroke:none;fill-rule:evenodd;"
d="M 13.3842,46.7250
13.3918,46.7633
13.4135,46.7957
13.4459,46.8174
13.4842,46.8250
14.7592,46.8250
14.7975,46.8174
14.8299,46.7957
14.8516,46.7633
14.8592,46.7250
14.8592,46.5250
14.8516,46.4867
14.8299,46.4543
14.7975,46.4326
14.7592,46.4250
13.4842,46.4250
13.4459,46.4326
13.4135,46.4543
13.3918,46.4867
13.3842,46.5250
Z" /> 
<path style="fill:#00C2C2; fill-opacity:0.9000; stroke:none;fill-rule:evenodd;"
d="M 13.3842,47.3750
13.3918,47.4133
13.4135,47.4457
13.4459,47.4674
13.4842,47.4750
14.7592,47.4750
14.7975,47.4674
14.8299,47.4457
14.8516,47.4133
14.8592,47.3750
14.8592,47.1750
14.8516,47.1367
14.8299,47.1043
14.7975,47.0826
14.7592,47.0750
13.4842,47.0750
13.4459,47.0826
13.4135,47.1043
13.3918,47.1367
13.3842,47.1750
Z" /> 
<path style="fill:#00C2C2; fill-opacity:0.9000; stroke:none;fill-rule:evenodd;"
d="M 19.1092,47.3750
19.1168,47.4133
19.1385,47.4457
19.1709,47.4674
19.2092,47.4750
20.4842,47.4750
20.5225,47.4674
20.5549,47.4457
20.5766,47.4133
20.5842,47.3750
20.5842,47.1750
20.5766,47.1367
20.5549,47.1043
20.5225,47.0826
20.4842,47.0750
19.2092,47.0750
19.1709,47.0826
19.1385,47.1043
19.1168,47.1367
19.1092,47.1750
Z" /> 
<path style="fill:#00C2C2; fill-opacity:0.9000; stroke:none;fill-rule:evenodd;"
d="M 19.1092,46.7250
19.1168,46.7633
19.1385,46.7957
19.1709,46.8174
19.2092,46.8250
20.4842,46.8250
20.5225,46.8174
20.5549,46.7957
20.5766,46.7633
20.5842,46.7250
20.5842,46.5250
20.5766,46.4867
20.5549,46.4543
20.5225,46.4326
20.4842,46.4250
19.2092,46.4250
19.1709,46.4326
19.1385,46.4543
19.1168,46.4867
19.1092,46.5250
Z" /> 
<path style="fill:#00C2C2; fill-opacity:0.9000; stroke:none;fill-rule:evenodd;"
d="M 19.1092,46.0750
19.1168,46.1133
19.1385,46.1457
19.1709,46.1674
19.2092,46.1750
20.4842,46.1750
20.5225,46.1674
20.5549,46.1457
20.5766,46.1133
20.5842,46.0750
20.5842,45.8750
20.5766,45.8367
20.5549,45.8043
20.5225,45.7826
20.4842,45.7750
19.2092,45.7750
19.1709,45.7826
19.1385,45.8043
19.1168,45.8367
19.1092,45.8750
Z" /> 
<path style="fill:#00C2C2; fill-opacity:0.9000; stroke:none;fill-rule:evenodd;"
d="M 19.1092,45.4250
19.1168,45.4633
19.1385,45.4957
19.1709,45.5174
19.2092,45.5250
20.4842,45.5250
20.5225,45.5174
20.5549,45.4957
20.5766,45.4633
20.5842,45.4250
20.5842,45.2250
20.5766,45.1867
20.5549,45.1543
20.5225,45.1326
20.4842,45.1250
19.2092,45.1250
19.1709,45.1326
19.1385,45.1543
19.1168,45.1867
19.1092,45.2250
Z" /> 
<path style="fill:#00C2C2; fill-opacity:0.9000; stroke:none;fill-rule:evenodd;"
d="M 19.1092,44.7750
19.1168,44.8133
19.1385,44.8457
19.1709,44.8674
19.2092,44.8750
20.4842,44.8750
20.5225,44.8674
20.5549,44.8457
20.5766,44.8133
20.5842,44.7750
20.5842,44.5750
20.5766,44.5367
20.5549,44.5043
20.5225,44.4826
20.4842,44.4750
19.2092,44.4750
19.1709,44.4826
19.1385,44.5043
19.1168,44.5367
19.1092,44.5750
Z" /> 
<path style="fill:#00C2C2; fill-opacity:0.9000; stroke:none;fill-rule:evenodd;"
d="M 19.1092,44.1250
19.1168,44.1633
19.1385,44.1957
19.1709,44.2174
19.2092,44.2250
20.4842,44.2250
20.5225,44.2174
20.5549,44.1957
20.5766,44.1633
20.5842,44.1250
20.5842,43.9250
20.5766,43.8867
20.5549,43.8543
20.5225,43.8326
20.4842,43.8250
19.2092,43.8250
19.1709,43.8326
19.1385,43.8543
19.1168,43.8867
19.1092,43.9250
Z" /> 
<path style="fill:#00C2C2; fill-opacity:0.9000; stroke:none;fill-rule:evenodd;"
d="M 19.1092,43.4750
19.1168,43.5133
19.1385,43.5457
19.1709,43.5674
19.2092,43.5750
20.4842,43.5750
20.5225,43.5674
20.5549,43.5457
20.5766,43.5133
20.5842,43.4750
20.5842,43.2750
20.5766,43.2367
20.5549,43.2043
20.5225,43.1826
20.4842,43.1750
19.2092,43.1750
19.1709,43.1826
19.1385,43.2043
19.1168,43.2367
19.1092,43.2750
Z" /> 
<path style="fill:#00C2C2; fill-opacity:0.9000; stroke:none;fill-rule:evenodd;"
d="M 19.1092,42.8250
19.1168,42.8633
19.1385,42.8957
19.1709,42.9174
19.2092,42.9250
20.4842,42.9250
20.5225,42.9174
20.5549,42.8957
20.5766,42.8633
20.5842,42.8250
20.5842,42.6250
20.5766,42.5867
20.5549,42.5543
20.5225,42.5326
20.4842,42.5250
19.2092,42.5250
19.1709,42.5326
19.1385,42.5543
19.1168,42.5867
19.1092,42.6250
Z" /> 
<path style="fill:#00C2C2; fill-opacity:0.9000; stroke:none;fill-rule:evenodd;"
d="M 16.5842,14.9750
16.5766,14.9367
16.5549,14.9043
16.5225,14.8826
16.4842,14.8750
15.2092,14.8750
15.1709,14.8826
15.1385,14.9043
15.1168,14.9367
15.1092,14.9750
15.1092,15.1750
15.1168,15.2133
15.1385,15.2457
15.1709,15.2674
15.2092,15.2750
16.4842,15.2750
16.5225,15.2674
16.5549,15.2457
16.5766,15.2133
16.5842,15.1750
Z" /> 
<path style="fill:#00C2C2; fill-opacity:0.9000; stroke:none;fill-rule:evenodd;"
d="M 16.5842,14.3250
16.5766,14.2867
16.5549,14.2543
16.5225,14.2326
16.4842,14.2250
15.2092,14.2250
15.1709,14.2326
15.1385,14.2543
15.1168,14.2867
15.1092,14.3250
15.1092,14.5250
15.1168,14.5633
15.1385,14.5957
15.1709,14.6174
15.2092,14.6250
16.4842,14.6250
16.5225,14.6174
16.5549,14.5957
16.5766,14.5633
16.5842,14.5250
Z" /> 
<path style="fill:#00C2C2; fill-opacity:0.9000; stroke:none;fill-rule:evenodd;"
d="M 16.5842,13.6750
16.5766,13.6367
16.5549,13.6043
16.5225,13.5826
16.4842,13.5750
15.2092,13.5750
15.1709,13.5826
15.1385,13.6043
15.1168,13.6367
15.1092,13.6750
15.1092,13.8750
15.1168,13.9133
15.1385,13.9457
15.1709,13.9674
15.2092,13.9750
16.4842,13.9750
16.5225,13.9674
16.5549,13.9457
16.5766,13.9133
16.5842,13.8750
Z" /> 
<path style="fill:#00C2C2; fill-opacity:0.9000; stroke:none;fill-rule:evenodd;"
d="M 16.5842,13.0250
16.5766,12.9867
16.5549,12.9543
16.5225,12.9326
16.4842,12.9250
15.2092,12.9250
15.1709,12.9326
15.1385,12.9543
15.1168,12.9867
15.1092,13.0250
15.1092,13.2250
15.1168,13.2633
15.1385,13.2957
15.1709,13.3174
15.2092,13.3250
16.4842,13.3250
16.5225,13.3174
16.5549,13.2957
16.5766,13.2633
16.5842,13.2250
Z" /> 
<path style="fill:#00C2C2; fill-opacity:0.9000; stroke:none;fill-rule:evenodd;"
d="M 16.5842,12.3750
16.5766,12.3367
16.5549,12.3043
16.5225,12.2826
16.4842,12.2750
15.2092,12.2750
15.1709,12.2826
15.1385,12.3043
15.1168,12.3367
15.1092,12.3750
15.1092,12.5750
15.1168,12.6133
15.1385,12.6457
15.1709,12.6674
15.2092,12.6750
16.4842,12.6750
16.5225,12.6674
16.5549,12.6457
16.5766,12.6133
16.5842,12.5750
Z" /> 
<path style="fill:#00C2C2; fill-opacity:0.9000; stroke:none;fill-rule:evenodd;"
d="M 16.5842,11.7250
16.5766,11.6867
16.5549,11.6543
16.5225,11.6326
16.4842,11.6250
15.2092,11.6250
15.1709,11.6326
15.1385,11.6543
15.1168,11.6867
15.1092,11.7250
15.1092,11.9250
15.1168,11.9633
15.1385,11.9957
15.1709,12.0174
15.2092,12.0250
16.4842,12.0250
16.5225,12.0174
16.5549,11.9957
16.5766,11.9633
16.5842,11.9250
Z" /> 
<path style="fill:#00C2C2; fill-opacity:0.9000; stroke:none;fill-rule:evenodd;"
d="M 16.5842,11.0750
16.5766,11.0367
16.5549,11.0043
16.5225,10.9826
16.4842,10.9750
15.2092,10.9750
15.1709,10.9826
15.1385,11.0043
15.1168,11.0367
15.1092,11.0750
15.1092,11.2750
15.1168,11.3133
15.1385,11.3457
15.1709,11.3674
15.2092,11.3750
16.4842,11.3750
16.5225,11.3674
16.5549,11.3457
16.5766,11.3133
16.5842,11.2750
Z" /> 
<path style="fill:#00C2C2; fill-opacity:0.9000; stroke:none;fill-rule:evenodd;"
d="M 16.5842,10.4250
16.5766,10.3867
16.5549,10.3543
16.5225,10.3326
16.4842,10.3250
15.2092,10.3250
15.1709,10.3326
15.1385,10.3543
15.1168,10.3867
15.1092,10.4250
15.1092,10.6250
15.1168,10.6633
15.1385,10.6957
15.1709,10.7174
15.2092,10.7250
16.4842,10.7250
16.5225,10.7174
16.5549,10.6957
16.5766,10.6633
16.5842,10.6250
Z" /> 
<path style="fill:#00C2C2; fill-opacity:0.9000; stroke:none;fill-rule:evenodd;"
d="M 10.8592,10.4250
10.8516,10.3867
10.8299,10.3543
10.7975,10.3326
10.7592,10.3250
9.4842,10.3250
9.4459,10.3326
9.4135,10.3543
9.3918,10.3867
9.3842,10.4250
9.3842,10.6250
9.3918,10.6633
9.4135,10.6957
9.4459,10.7174
9.4842,10.7250
10.7592,10.7250
10.7975,10.7174
10.8299,10.6957
10.8516,10.6633
10.8592,10.6250
Z" /> 
<path style="fill:#00C2C2; fill-opacity:0.9000; stroke:none;fill-rule:evenodd;"
d="M 10.8592,11.0750
10.8516,11.0367
10.8299,11.0043
10.7975,10.9826
10.7592,10.9750
9.4842,10.9750
9.4459,10.9826
9.4135,11.0043
9.3918,11.0367
9.3842,11.0750
9.3842,11.2750
9.3918,11.3133
9.4135,11.3457
9.4459,11.3674
9.4842,11.3750
10.7592,11.3750
10.7975,11.3674
10.8299,11.3457
10.8516,11.3133
10.8592,11.2750
Z" /> 
<path style="fill:#00C2C2; fill-opacity:0.9000; stroke:none;fill-rule:evenodd;"
d="M 10.8592,11.7250
10.8516,11.6867
10.8299,11.6543
10.7975,11.6326
10.7592,11.6250
9.4842,11.6250
9.4459,11.6326
9.4135,11.6543
9.3918,11.6867
9.3842,11.7250
9.3842,11.9250
9.3918,11.9633
9.4135,11.9957
9.4459,12.0174
9.4842,12.0250
10.7592,12.0250
10.7975,12.0174
10.8299,11.9957
10.8516,11.9633
10.8592,11.9250
Z" /> 
<path style="fill:#00C2C2; fill-opacity:0.9000; stroke:none;fill-rule:evenodd;"
d="M 10.8592,12.3750
10.8516,12.3367
10.8299,12.3043
10.7975,12.2826
10.7592,12.2750
9.4842,12.2750
9.4459,12.2826
9.4135,12.3043
9.3918,12.3367
9.3842,12.3750
9.3842,12.5750
9.3918,12.6133
9.4135,12.6457
9.4459,12.6674
9.4842,12.6750
10.7592,12.6750
10.7975,12.6674
10.8299,12.6457
10.8516,12.6133
10.8592,12.5750
Z" /> 
<path style="fill:#00C2C2; fill-opacity:0.9000; stroke:none;fill-rule:evenodd;"
d="M 10.8592,13.0250
10.8516,12.9867
10.8299,12.9543
10.7975,12.9326
10.7592,12.9250
9.4842,12.9250
9.4459,12.9326
9.4135,12.9543
9.3918,12.9867
9.3842,13.0250
9.3842,13.2250
9.3918,13.2633
9.4135,13.2957
9.4459,13.3174
9.4842,13.3250
10.7592,13.3250
10.7975,13.3174
10.8299,13.2957
10.8516,13.2633
10.8592,13.2250
Z" /> 
<path style="fill:#00C2C2; fill-opacity:0.9000; stroke:none;fill-rule:evenodd;"
d="M 10.8592,13.6750
10.8516,13.6367
10.8299,13.6043
10.7975,13.5826
10.7592,13.5750
9.4842,13.5750
9.4459,13.5826
9.4135,13.6043
9.3918,13.6367
9.3842,13.6750
9.3842,13.8750
9.3918,13.9133
9.4135,13.9457
9.4459,13.9674
9.4842,13.9750
10.7592,13.9750
10.7975,13.9674
10.8299,13.9457
10.8516,13.9133
10.8592,13.8750
Z" /> 
<path style="fill:#00C2C2; fill-opacity:0.9000; stroke:none;fill-rule:evenodd;"
d="M 10.8592,14.3250
10.8516,14.2867
10.8299,14.2543
10.7975,14.2326
10.7592,14.2250
9.4842,14.2250
9.4459,14.2326
9.4135,14.2543
9.3918,14.2867
9.3842,14.3250
9.3842,14.5250
9.3918,14.5633
9.4135,14.5957
9.4459,14.6174
9.4842,14.6250
10.7592,14.6250
10.7975,14.6174
10.8299,14.5957
10.8516,14.5633
10.8592,14.5250
Z" /> 
<path style="fill:#00C2C2; fill-opacity:0.9000; stroke:none;fill-rule:evenodd;"
d="M 10.8592,14.9750
10.8516,14.9367
10.8299,14.9043
10.7975,14.8826
10.7592,14.8750
9.4842,14.8750
9.4459,14.8826
9.4135,14.9043
9.3918,14.9367
9.3842,14.9750
9.3842,15.1750
9.3918,15.2133
9.4135,15.2457
9.4459,15.2674
9.4842,15.2750
10.7592,15.2750
10.7975,15.2674
10.8299,15.2457
10.8516,15.2133
10.8592,15.1750
Z" /> 
<path style="fill:#00C2C2; fill-opacity:0.9000; stroke:none;fill-rule:evenodd;"
d="M 17.1217,10.8750
17.1407,10.9707
17.1949,11.0518
17.2760,11.1060
17.3717,11.1250
18.0467,11.1250
18.1424,11.1060
18.2235,11.0518
18.2777,10.9707
18.2967,10.8750
18.2967,9.9250
18.2777,9.8293
18.2235,9.7482
18.1424,9.6940
18.0467,9.6750
17.3717,9.6750
17.2760,9.6940
17.1949,9.7482
17.1407,9.8293
17.1217,9.9250
Z" /> 
<path style="fill:#00C2C2; fill-opacity:0.9000; stroke:none;fill-rule:evenodd;"
d="M 19.1967,10.8750
19.2157,10.9707
19.2699,11.0518
19.3510,11.1060
19.4467,11.1250
20.1217,11.1250
20.2174,11.1060
20.2985,11.0518
20.3527,10.9707
20.3717,10.8750
20.3717,9.9250
20.3527,9.8293
20.2985,9.7482
20.2174,9.6940
20.1217,9.6750
19.4467,9.6750
19.3510,9.6940
19.2699,9.7482
19.2157,9.8293
19.1967,9.9250
Z" /> 
<path style="fill:#00C2C2; fill-opacity:0.9000; stroke:none;fill-rule:evenodd;"
d="M 8.7092,48.4250
8.6902,48.3293
8.6360,48.2482
8.5549,48.1940
8.4592,48.1750
7.7842,48.1750
7.6885,48.1940
7.6074,48.2482
7.5532,48.3293
7.5342,48.4250
7.5342,49.3750
7.5532,49.4707
7.6074,49.5518
7.6885,49.6060
7.7842,49.6250
8.4592,49.6250
8.5549,49.6060
8.6360,49.5518
8.6902,49.4707
8.7092,49.3750
Z" /> 
<path style="fill:#00C2C2; fill-opacity:0.9000; stroke:none;fill-rule:evenodd;"
d="M 6.6342,48.4250
6.6152,48.3293
6.5610,48.2482
6.4799,48.1940
6.3842,48.1750
5.7092,48.1750
5.6135,48.1940
5.5324,48.2482
5.4782,48.3293
5.4592,48.4250
5.4592,49.3750
5.4782,49.4707
5.5324,49.5518
5.6135,49.6060
5.7092,49.6250
6.3842,49.6250
6.4799,49.6060
6.5610,49.5518
6.6152,49.4707
6.6342,49.3750
Z" /> 
<path style="fill:#00C2C2; fill-opacity:0.9000; stroke:none;fill-rule:evenodd;"
d="M 17.1217,12.8750
17.1407,12.9707
17.1949,13.0518
17.2760,13.1060
17.3717,13.1250
18.0467,13.1250
18.1424,13.1060
18.2235,13.0518
18.2777,12.9707
18.2967,12.8750
18.2967,11.9250
18.2777,11.8293
18.2235,11.7482
18.1424,11.6940
18.0467,11.6750
17.3717,11.6750
17.2760,11.6940
17.1949,11.7482
17.1407,11.8293
17.1217,11.9250
Z" /> 
<path style="fill:#00C2C2; fill-opacity:0.9000; stroke:none;fill-rule:evenodd;"
d="M 19.1967,12.8750
19.2157,12.9707
19.2699,13.0518
19.3510,13.1060
19.4467,13.1250
20.1217,13.1250
20.2174,13.1060
20.2985,13.0518
20.3527,12.9707
20.3717,12.8750
20.3717,11.9250
20.3527,11.8293
20.2985,11.7482
20.2174,11.6940
20.1217,11.6750
19.4467,11.6750
19.3510,11.6940
19.2699,11.7482
19.2157,11.8293
19.1967,11.9250
Z" /> 
<path style="fill:#00C2C2; fill-opacity:0.9000; stroke:none;fill-rule:evenodd;"
d="M 17.1217,14.8750
17.1407,14.9707
17.1949,15.0518
17.2760,15.1060
17.3717,15.1250
18.0467,15.1250
18.1424,15.1060
18.2235,15.0518
18.2777,14.9707
18.2967,14.8750
18.2967,13.9250
18.2777,13.8293
18.2235,13.7482
18.1424,13.6940
18.0467,13.6750
17.3717,13.6750
17.2760,13.6940
17.1949,13.7482
17.1407,13.8293
17.1217,13.9250
Z" /> 
<path style="fill:#00C2C2; fill-opacity:0.9000; stroke:none;fill-rule:evenodd;"
d="M 19.1967,14.8750
19.2157,14.9707
19.2699,15.0518
19.3510,15.1060
19.4467,15.1250
20.1217,15.1250
20.2174,15.1060
20.2985,15.0518
20.3527,14.9707
20.3717,14.8750
20.3717,13.9250
20.3527,13.8293
20.2985,13.7482
20.2174,13.6940
20.1217,13.6750
19.4467,13.6750
19.3510,13.6940
19.2699,13.7482
19.2157,13.8293
19.1967,13.9250
Z" /> 
<path style="fill:#00C2C2; fill-opacity:0.9000; stroke:none;fill-rule:evenodd;"
d="M 5.5217,16.8750
5.5407,16.9707
5.5949,17.0518
5.6760,17.1060
5.7717,17.1250
6.4467,17.1250
6.5424,17.1060
6.6235,17.0518
6.6777,16.9707
6.6967,16.8750
6.6967,15.9250
6.6777,15.8293
6.6235,15.7482
6.5424,15.6940
6.4467,15.6750
5.7717,15.6750
5.6760,15.6940
5.5949,15.7482
5.5407,15.8293
5.5217,15.9250
Z" /> 
<path style="fill:#00C2C2; fill-opacity:0.9000; stroke:none;fill-rule:evenodd;"
d="M 7.5967,16.8750
7.6157,16.9707
7.6699,17.0518
7.7510,17.1060
7.8467,17.1250
8.5217,17.1250
8.6174,17.1060
8.6985,17.0518
8.7527,16.9707
8.7717,16.8750
8.7717,15.9250
8.7527,15.8293
8.6985,15.7482
8.6174,15.6940
8.5217,15.6750
7.8467,15.6750
7.7510,15.6940
7.6699,15.7482
7.6157,15.8293
7.5967,15.9250
Z" /> 
<path style="fill:#00C2C2; fill-opacity:0.9000; stroke:none;fill-rule:evenodd;"
d="M 5.5217,8.8750
5.5407,8.9707
5.5949,9.0518
5.6760,9.1060
5.7717,9.1250
6.4467,9.1250
6.5424,9.1060
6.6235,9.0518
6.6777,8.9707
6.6967,8.8750
6.6967,7.9250
6.6777,7.8293
6.6235,7.7482
6.5424,7.6940
6.4467,7.6750
5.7717,7.6750
5.6760,7.6940
5.5949,7.7482
5.5407,7.8293
5.5217,7.9250
Z" /> 
<path style="fill:#00C2C2; fill-opacity:0.9000; stroke:none;fill-rule:evenodd;"
d="M 7.5967,8.8750
7.6157,8.9707
7.6699,9.0518
7.7510,9.1060
7.8467,9.1250
8.5217,9.1250
8.6174,9.1060
8.6985,9.0518
8.7527,8.9707
8.7717,8.8750
8.7717,7.9250
8.7527,7.8293
8.6985,7.7482
8.6174,7.6940
8.5217,7.6750
7.8467,7.6750
7.7510,7.6940
7.6699,7.7482
7.6157,7.8293
7.5967,7.9250
Z" /> 
<path style="fill:none; 
stroke:#D0D2CD; stroke-width:0.1000; stroke-opacity:1; 
stroke-linecap:round; stroke-linejoin:round;fill:none"
d="M 25.4842,0.5000
0.4842,0.5000
0.4842,55.5000
25.4842,55.5000
Z" /> 
</g> 
</svg>
